{"title":"Rich Gang Ft. Lil Wayne, Birdman, Mack Maine, Nicki Minaj &amp; ","uid":8832492,"size":73275885,"categoryP":"video","categoryS":"music_videos","magnet":"?xt=urn:btih:ac5cd54e2d06bd3152ff5cb8bd0cfff1101f9b51&amp;dn=Rich+Gang+Ft.+Lil+Wayne%2C+Birdman%2C+Mack+Maine%2C+Nicki+Minaj+%26amp%3B+&amp;tr=udp%3A%2F%2Ftracker.openbittorrent.com%3A80&amp;tr=udp%3A%2F%2Fopen.demonii.com%3A1337&amp;tr=udp%3A%2F%2Ftracker.coppersurfer.tk%3A6969&amp;tr=udp%3A%2F%2Fexodus.desync.com%3A6969","seeders":2,"leechers":1,"uploader":"Sbyky","files":-1,"time":1377024134,"description":"[IMG]http://yuq.me/users/18/139/y2xHmXB8q4.png[/IMG]\n\nGeneral\nComplete name                            : Rich Gang Ft. Lil Wayne, Birdman, Mack Maine, Nicki Minaj &amp; Future - Tapout [Explicit] 720p [Sbyky].mp4\nFormat                                   : MPEG-4\nFormat profile                           : Base Media / Version 2\nCodec ID                                 : mp42\nFile size                                : 69.9 MiB\nDuration                                 : 4mn 54s\nOverall bit rate mode                    : Variable\nOverall bit rate                         : 1 991 Kbps\nEncoded date                             : UTC 2013-06-03 18:09:34\nTagged date                              : UTC 2013-06-03 18:09:34\n\nVideo\nID                                       : 1\nFormat                                   : AVC\nFormat/Info                              : Advanced Video Codec\nFormat profile                           : &lt;a class=&quot;__cf_email__&quot; href=&quot;/cdn-cgi/l/email-protection&quot; data-cfemail=&quot;8ac2e3ede2cac6b9a4bb&quot;&gt;[email&amp;#160;protected]&lt;/a&gt;&lt;script cf-hash='f9e31' type=&quot;text/javascript&quot;&gt;\n/* &lt;![CDATA[ */!function(){try{var t=&quot;currentScript&quot;in document?document.currentScript:function(){for(var t=document.getElementsByTagName(&quot;script&quot;),e=t.length;e--;)if(t[e].getAttribute(&quot;cf-hash&quot;))return t[e]}();if(t&amp;&amp;t.previousSibling){var e,r,n,i,c=t.previousSibling,a=c.getAttribute(&quot;data-cfemail&quot;);if(a){for(e=&quot;&quot;,r=parseInt(a.substr(0,2),16),n=2;a.length-n;n+=2)i=parseInt(a.substr(n,2),16)^r,e+=String.fromCharCode(i);e=document.createTextNode(e),c.parentNode.replaceChild(e,c)}}}catch(u){}}();/* ]]&gt; */&lt;/script&gt;\nFormat settings, CABAC                   : Yes\nFormat settings, ReFrames                : 1 frame\nCodec ID                                 : avc1\nCodec ID/Info                            : Advanced Video Coding\nDuration                                 : 4mn 54s\nBit rate                                 : 1 797 Kbps\nMaximum bit rate                         : 5 293 Kbps\nWidth                                    : 1 280 pixels\nHeight                                   : 720 pixels\nDisplay aspect ratio                     : 16:9\nFrame rate mode                          : Constant\nFrame rate                               : 23.976 fps\nColor space                              : YUV\nChroma subsampling                       : 4:2:0\nBit depth                                : 8 bits\nScan type                                : Progressive\nBits/(Pixel*Frame)                       : 0.081\nStream size                              : 63.1 MiB (90%)\nTagged date                              : UTC 2013-06-03 18:09:41\n\nAudio\nID                                       : 2\nFormat                                   : AAC\nFormat/Info                              : Advanced Audio Codec\nFormat profile                           : LC\nCodec ID                                 : 40\nDuration                                 : 4mn 54s\nBit rate mode                            : Variable\nBit rate                                 : 192 Kbps\nMaximum bit rate                         : 202 Kbps\nChannel(s)                               : 2 channels\nChannel positions                        : Front: L R\nSampling rate                            : 44.1 KHz\nCompression mode                         : Lossy\nStream size                              : 6.74 MiB (10%)\nTitle                                    : IsoMedia File Produced by Google, 5-11-2011\nEncoded date                             : UTC 2013-06-03 18:09:39\nTagged date                              : UTC 2013-06-03 18:09:41\n\nShared By Sbyky\n[IMG]http://yuq.me/users/18/139/0aq32UMZvX.gif[/IMG]\n[IMG]http://yuq.me/users/18/139/bQg62viaEG.gif[/IMG]","torrent":{"xt":"urn:btih:ac5cd54e2d06bd3152ff5cb8bd0cfff1101f9b51","amp;dn":"Rich+Gang+Ft.+Lil+Wayne%2C+Birdman%2C+Mack+Maine%2C+Nicki+Minaj+%26amp%3B+","amp;tr":["udp%3A%2F%2Ftracker.openbittorrent.com%3A80","udp%3A%2F%2Fopen.demonii.com%3A1337","udp%3A%2F%2Ftracker.coppersurfer.tk%3A6969","udp%3A%2F%2Fexodus.desync.com%3A6969"],"infoHash":"ac5cd54e2d06bd3152ff5cb8bd0cfff1101f9b51","infoHashBuffer":{"type":"Buffer","data":[172,92,213,78,45,6,189,49,82,255,92,184,189,12,255,241,16,31,155,81]},"announce":[],"urlList":[]}}